<svg width="1110" height="46" viewBox="0 0 1110 46" fill="none" xmlns="http://www.w3.org/2000/svg">
<line x1="190.5" y1="2.18557e-08" x2="190.5" y2="46" stroke="#F2F2F2"/>
<path d="M232.483 11C227.43 11 223.32 15.1101 223.32 20.1623C223.32 22.4832 224.783 25.7623 227.667 29.9087C229.775 32.9397 231.849 35.2851 231.936 35.3835L232.483 36L233.029 35.3835C233.117 35.2851 235.19 32.9397 237.299 29.9087C240.183 25.7623 241.645 22.4832 241.645 20.1623C241.645 15.1101 237.535 11 232.483 11ZM236.107 29.0622C234.682 31.1122 233.241 32.8765 232.483 33.7766C231.726 32.879 230.291 31.1214 228.867 29.074C226.194 25.2323 224.782 22.1506 224.782 20.1623C224.782 15.9162 228.237 12.4616 232.483 12.4616C236.729 12.4616 240.183 15.9162 240.183 20.1623C240.183 22.1485 238.774 25.226 236.107 29.0622Z" fill="#C8A35F"/>
<path d="M232.483 14.3862C229.501 14.3862 227.075 16.812 227.075 19.7938C227.075 22.7755 229.501 25.2015 232.483 25.2015C235.465 25.2015 237.89 22.7755 237.89 19.7938C237.89 16.812 235.465 14.3862 232.483 14.3862ZM232.483 23.7399C230.307 23.7399 228.537 21.9697 228.537 19.7938C228.537 17.618 230.307 15.8478 232.483 15.8478C234.659 15.8478 236.429 17.618 236.429 19.7938C236.429 21.9697 234.659 23.7399 232.483 23.7399Z" fill="#C8A35F"/>
<path d="M263.805 28H262.485V23.3994H257.468V28H256.155V18.0469H257.468V22.3262H262.485V18.0469H263.805V28ZM271.204 28C271.131 27.8542 271.072 27.5944 271.026 27.2207C270.438 27.8314 269.736 28.1367 268.921 28.1367C268.192 28.1367 267.592 27.9316 267.123 27.5215C266.658 27.1068 266.426 26.5827 266.426 25.9492C266.426 25.179 266.717 24.582 267.301 24.1582C267.888 23.7298 268.713 23.5156 269.775 23.5156H271.006V22.9346C271.006 22.4925 270.874 22.1416 270.609 21.8818C270.345 21.6175 269.955 21.4854 269.44 21.4854C268.989 21.4854 268.611 21.5993 268.305 21.8271C268 22.055 267.847 22.3307 267.847 22.6543H266.576C266.576 22.2852 266.706 21.9297 266.966 21.5879C267.23 21.2415 267.585 20.9681 268.032 20.7676C268.483 20.5671 268.978 20.4668 269.515 20.4668C270.368 20.4668 271.035 20.681 271.518 21.1094C272.001 21.5332 272.252 22.1188 272.27 22.8662V26.2705C272.27 26.9495 272.357 27.4896 272.53 27.8906V28H271.204ZM269.105 27.0361C269.502 27.0361 269.878 26.9336 270.233 26.7285C270.589 26.5234 270.846 26.2568 271.006 25.9287V24.4111H270.014C268.465 24.4111 267.69 24.8646 267.69 25.7715C267.69 26.168 267.822 26.4779 268.087 26.7012C268.351 26.9245 268.691 27.0361 269.105 27.0361ZM276.334 20.6035V26.9678H279.041V20.6035H280.305V26.9678H283.005V20.6035H284.277V28H275.062V20.6035H276.334ZM291.758 20.6035H293.023V28H291.758V22.6064L288.347 28H287.082V20.6035H288.347V26.0039L291.758 20.6035ZM299.591 24.2334C299.591 23.5088 299.732 22.8571 300.015 22.2783C300.302 21.6995 300.698 21.2529 301.204 20.9385C301.715 20.624 302.296 20.4668 302.947 20.4668C303.954 20.4668 304.768 20.8154 305.388 21.5127C306.012 22.21 306.324 23.1374 306.324 24.2949V24.3838C306.324 25.1038 306.185 25.751 305.907 26.3252C305.634 26.8949 305.24 27.3392 304.725 27.6582C304.214 27.9772 303.626 28.1367 302.961 28.1367C301.958 28.1367 301.145 27.7881 300.521 27.0908C299.901 26.3936 299.591 25.4707 299.591 24.3223V24.2334ZM300.862 24.3838C300.862 25.2041 301.051 25.8626 301.43 26.3594C301.812 26.8561 302.323 27.1045 302.961 27.1045C303.604 27.1045 304.114 26.8538 304.492 26.3525C304.87 25.8467 305.06 25.1403 305.06 24.2334C305.06 23.4222 304.866 22.766 304.479 22.2646C304.096 21.7588 303.585 21.5059 302.947 21.5059C302.323 21.5059 301.819 21.7542 301.437 22.251C301.054 22.7477 300.862 23.4587 300.862 24.3838ZM308.337 24.4385C308.337 23.2035 308.576 22.2327 309.054 21.5264C309.533 20.82 310.189 20.4668 311.023 20.4668C311.411 20.4668 311.75 20.5329 312.042 20.665V17.5H313.306V20.7061C313.625 20.5465 313.999 20.4668 314.428 20.4668C315.266 20.4668 315.925 20.82 316.403 21.5264C316.882 22.2327 317.121 23.2513 317.121 24.582C317.121 25.6712 316.882 26.5371 316.403 27.1797C315.929 27.8223 315.275 28.1436 314.441 28.1436C313.999 28.1436 313.621 28.0706 313.306 27.9248V30.8438H312.042V27.9453C311.741 28.0775 311.397 28.1436 311.01 28.1436C310.18 28.1436 309.526 27.8223 309.048 27.1797C308.574 26.5371 308.337 25.6576 308.337 24.541V24.4385ZM315.856 24.4385C315.856 23.5088 315.697 22.7887 315.378 22.2783C315.059 21.7633 314.619 21.5059 314.058 21.5059C313.771 21.5059 313.521 21.5514 313.306 21.6426V26.9951C313.512 27.0726 313.767 27.1113 314.072 27.1113C314.637 27.1113 315.075 26.8926 315.385 26.4551C315.699 26.0176 315.856 25.3454 315.856 24.4385ZM309.601 24.582C309.601 25.4115 309.749 26.0404 310.046 26.4688C310.342 26.8971 310.768 27.1113 311.324 27.1113C311.588 27.1113 311.828 27.0703 312.042 26.9883V21.6221C311.85 21.5446 311.616 21.5059 311.338 21.5059C310.782 21.5059 310.353 21.7542 310.053 22.251C309.752 22.7477 309.601 23.5247 309.601 24.582ZM324.254 20.6035H325.518V28H324.254V22.6064L320.842 28H319.578V20.6035H320.842V26.0039L324.254 20.6035ZM331.215 27.1045C331.666 27.1045 332.061 26.9678 332.398 26.6943C332.735 26.4209 332.922 26.0791 332.958 25.6689H334.155C334.132 26.0928 333.986 26.4961 333.717 26.8789C333.448 27.2617 333.088 27.5671 332.637 27.7949C332.19 28.0228 331.717 28.1367 331.215 28.1367C330.208 28.1367 329.406 27.8018 328.809 27.1318C328.217 26.4574 327.92 25.5368 327.92 24.3701V24.1582C327.92 23.4382 328.052 22.7979 328.317 22.2373C328.581 21.6768 328.959 21.2415 329.452 20.9316C329.948 20.6217 330.534 20.4668 331.208 20.4668C332.038 20.4668 332.726 20.7152 333.273 21.2119C333.824 21.7087 334.118 22.3535 334.155 23.1465H332.958C332.922 22.668 332.74 22.276 332.412 21.9707C332.088 21.6608 331.687 21.5059 331.208 21.5059C330.566 21.5059 330.067 21.7383 329.711 22.2031C329.36 22.6634 329.185 23.3311 329.185 24.2061V24.4453C329.185 25.2975 329.36 25.9538 329.711 26.4141C330.062 26.8743 330.564 27.1045 331.215 27.1045ZM337.657 23.1533H339.578C340.417 23.1624 341.08 23.3812 341.568 23.8096C342.055 24.238 342.299 24.819 342.299 25.5527C342.299 26.291 342.048 26.8835 341.547 27.3301C341.046 27.7767 340.371 28 339.524 28H336.393V20.6035H337.657V23.1533ZM344.938 28H343.666V20.6035H344.938V28ZM337.657 24.1855V26.9678H339.537C340.011 26.9678 340.378 26.847 340.638 26.6055C340.898 26.3594 341.028 26.0244 341.028 25.6006C341.028 25.1904 340.9 24.8555 340.645 24.5957C340.394 24.3314 340.041 24.1947 339.585 24.1855H337.657Z" fill="white"/>
<g clip-path="url(#clip0_0_1)">
<path d="M36.7229 33.864C36.1088 34.9447 35.3842 35.9616 34.5589 36.8974L34.5811 36.9195L33.8147 37.6883C30.403 41.1197 25.8615 43.011 21.0252 43.011C16.2086 43.011 11.6793 41.1344 8.27253 37.7276C4.86576 34.3209 2.98921 29.7916 2.98921 24.975C2.98921 24.6188 2.99904 24.2578 3.02114 23.8991C3.0236 23.85 3.02606 23.8009 3.03097 23.7493V23.7346C3.03343 23.7027 3.03588 23.6683 3.03834 23.6363V23.6191C3.04325 23.5455 3.05062 23.4693 3.05799 23.3956C3.0629 23.3342 3.06781 23.2704 3.07518 23.204C3.08501 23.1082 3.09483 23.01 3.10466 22.9142C3.11202 22.8577 3.11694 22.7939 3.12676 22.7324C3.13659 22.6538 3.14641 22.563 3.15869 22.4745C3.16606 22.4254 3.17343 22.3763 3.1808 22.3272C3.19062 22.2461 3.20536 22.1552 3.2201 22.0668C3.22747 22.0201 3.23729 21.9661 3.24466 21.9145C3.25203 21.8703 3.2594 21.8261 3.26922 21.7819C3.27905 21.7254 3.29133 21.6591 3.30361 21.5952C3.31343 21.5387 3.32572 21.4773 3.338 21.4159C3.35273 21.3447 3.36501 21.2759 3.38221 21.2022C3.48537 20.711 3.61309 20.2173 3.75801 19.7359L3.76292 19.7236C3.78012 19.6597 3.79976 19.5959 3.82187 19.5345C3.83906 19.4804 3.85626 19.4264 3.87345 19.3699C3.97661 19.0555 4.0896 18.7362 4.20995 18.4292C4.22715 18.3874 4.24434 18.3407 4.26153 18.2965C4.28118 18.2499 4.29838 18.2007 4.32048 18.1491C4.34504 18.0902 4.37206 18.0239 4.39908 17.9576C4.41873 17.9084 4.44329 17.8519 4.46786 17.7979L4.47768 17.7733C4.51207 17.6997 4.544 17.6235 4.57838 17.5498C4.60295 17.4933 4.62751 17.4393 4.65453 17.3853C5.10893 16.4028 5.66158 15.4547 6.29282 14.5655L6.39598 14.4255C6.46721 14.3273 6.53844 14.229 6.61213 14.1357C6.64652 14.0915 6.68336 14.0424 6.7202 13.9957C6.7988 13.8925 6.87986 13.7918 6.95846 13.6936C7.00513 13.6371 7.05179 13.5757 7.10092 13.5192C7.14513 13.4651 7.19425 13.4087 7.24338 13.3497C7.29005 13.2932 7.34163 13.2343 7.39075 13.1778C7.44724 13.1139 7.50374 13.0476 7.56023 12.9837L5.44297 10.864C1.93059 14.7276 0 19.7211 0 24.9725C0 30.5899 2.18603 35.8683 6.15773 39.84C10.1294 43.8117 15.4078 45.9977 21.0252 45.9977C26.6598 45.9977 31.9529 43.797 35.9271 39.8031C37.0618 38.6635 38.0615 37.401 38.904 36.0427L36.7229 33.864Z" fill="#C8A35F"/>
<path d="M9.81255 36.1875C12.8067 39.1816 16.7906 40.8322 21.0252 40.8322C21.1578 40.8322 21.2904 40.8297 21.4231 40.8273C21.4894 40.8273 21.5532 40.8248 21.6196 40.8224H21.6294C21.7276 40.8174 21.8234 40.8125 21.9217 40.8076C22.0003 40.8027 22.0764 40.7978 22.155 40.7929C22.1943 40.7904 22.2287 40.788 22.2606 40.7855L22.3147 40.7806C22.3859 40.7757 22.4571 40.7683 22.5308 40.7609C22.5947 40.756 22.6536 40.7511 22.715 40.7438C22.7592 40.7388 22.7985 40.7339 22.8354 40.7315L22.9164 40.7216C22.968 40.7143 23.0196 40.7094 23.0736 40.702C23.2701 40.6774 23.4617 40.6504 23.6509 40.6185C23.7049 40.6087 23.7565 40.5988 23.8081 40.5915L23.8252 40.589C23.867 40.5816 23.9088 40.5743 23.9481 40.5669L23.9677 40.562C24.0217 40.5522 24.0758 40.5423 24.1298 40.5301C24.2723 40.503 24.4123 40.4736 24.5498 40.4416C24.6432 40.422 24.7365 40.3974 24.8298 40.3753L24.8421 40.3729C24.8667 40.368 24.8888 40.363 24.9133 40.3557C24.9821 40.3385 25.0435 40.3213 25.1074 40.3066C25.1614 40.2918 25.213 40.2795 25.2621 40.2648C25.3063 40.2525 25.3456 40.2427 25.3825 40.2304C25.4193 40.2206 25.4488 40.2132 25.4758 40.2034L25.4979 40.196C25.5372 40.1862 25.5765 40.1739 25.6158 40.1616C25.6821 40.142 25.7386 40.1248 25.7951 40.1051C25.8418 40.0904 25.8811 40.0781 25.9253 40.0658C26.0579 40.0216 26.1906 39.9774 26.3208 39.9307C26.3576 39.9185 26.392 39.9062 26.4264 39.8939L26.4534 39.8841C26.5001 39.8669 26.5418 39.8521 26.5811 39.8374C26.6474 39.8129 26.7039 39.7907 26.7629 39.7686C26.812 39.749 26.8562 39.7342 26.898 39.7171C26.979 39.6851 27.0527 39.6557 27.1264 39.6237L27.3475 39.5304C27.4162 39.5009 27.485 39.4714 27.5489 39.442C27.5882 39.4248 27.6201 39.41 27.6545 39.3953L27.6864 39.3806C27.7404 39.356 27.7945 39.329 27.8485 39.3044C28.1826 39.1448 28.5117 38.9753 28.8286 38.7935C28.8629 38.7739 28.8949 38.7542 28.9293 38.737C29.0029 38.6953 29.0766 38.6511 29.1479 38.6093L29.5114 38.3858C29.671 38.2826 29.8381 38.1746 30.0174 38.0517C30.0665 38.0174 30.1156 37.983 30.1647 37.9486L30.1844 37.9338C30.2212 37.9068 30.2581 37.8823 30.2949 37.8552L30.3047 37.8479C30.3318 37.8282 30.3588 37.8086 30.3858 37.7889L30.3956 37.7816C30.4423 37.7496 30.4865 37.7152 30.5307 37.6809C30.5823 37.644 30.6314 37.6047 30.6781 37.5679C30.7125 37.5408 30.7395 37.5187 30.769 37.4966L30.8033 37.4696C30.8525 37.4303 30.904 37.391 30.9532 37.3493C31.0048 37.3075 31.0563 37.2658 31.1055 37.2265L31.1177 37.2166C31.2135 37.138 31.3069 37.057 31.4027 36.9759C31.4321 36.9514 31.4592 36.9268 31.4886 36.8998L29.3689 34.7776C27.0478 36.7573 24.1028 37.8405 21.0325 37.8405C13.939 37.8405 8.16688 32.0684 8.16688 24.9749C8.16688 21.5165 9.52026 18.2718 11.974 15.8377C13.126 14.6956 14.5064 13.7696 15.9973 13.1334L13.7474 10.8835C12.313 11.6278 11.0038 12.5832 9.85185 13.7278C6.8307 16.7269 5.16785 20.7182 5.16785 24.9724C5.16785 29.2094 6.81842 33.1909 9.81255 36.1875Z" fill="white"/>
<path d="M39.0195 21.0252C39.0195 15.4078 36.8334 10.1294 32.8617 6.15773C28.89 2.18603 23.6092 0 17.9918 0C12.3572 0 7.0641 2.19831 3.0924 6.19457C1.95762 7.3318 0.957945 8.59675 0.113007 9.95504L2.29658 12.1386C2.91064 11.0579 3.63522 10.041 4.46051 9.10519L4.4384 9.08308L5.20474 8.31429C8.61397 4.88296 13.158 2.99167 17.9943 2.99167C22.8109 2.99167 27.3402 4.86822 30.7469 8.27499C34.1537 11.6818 36.0302 16.2086 36.0302 21.0277C36.0302 21.3838 36.0204 21.7473 35.9983 22.1035C35.9959 22.1501 35.9934 22.2017 35.9885 22.2533C35.986 22.2902 35.9836 22.327 35.9811 22.3638V22.381C35.9762 22.4547 35.9688 22.5309 35.9615 22.6045C35.9566 22.666 35.9516 22.7323 35.9443 22.7986C35.9344 22.8919 35.9246 22.9902 35.9148 23.0884C35.9074 23.1449 35.9025 23.2063 35.8927 23.2702C35.8829 23.3488 35.873 23.4372 35.8608 23.5281C35.8534 23.5772 35.846 23.6263 35.8387 23.673C35.8288 23.7565 35.8141 23.8449 35.7994 23.9358C35.792 23.9825 35.7822 24.0365 35.7748 24.0881C35.7674 24.1323 35.7601 24.1765 35.7502 24.2207C35.7404 24.2772 35.7281 24.3435 35.7158 24.4074C35.706 24.4639 35.6937 24.5253 35.679 24.5867C35.6667 24.6555 35.652 24.7267 35.6348 24.8004C35.5316 25.2916 35.4039 25.7878 35.259 26.2668C35.2393 26.3331 35.2197 26.4019 35.1951 26.4706C35.1779 26.5247 35.1607 26.5787 35.1435 26.6352C35.0404 26.952 34.9274 27.2689 34.807 27.5759C34.7899 27.6177 34.7727 27.6619 34.7555 27.7061C34.7358 27.7552 34.7162 27.8044 34.6965 27.8535C34.672 27.9124 34.6449 27.9787 34.6179 28.0451C34.5983 28.0942 34.5737 28.1507 34.5491 28.2047L34.5393 28.2293C34.5049 28.303 34.473 28.3791 34.4386 28.4528C34.4141 28.5093 34.3895 28.5633 34.3625 28.6174C33.9081 29.5998 33.3554 30.5479 32.7242 31.4371L32.6235 31.5771C32.5498 31.6778 32.4786 31.7736 32.4073 31.8669C32.3729 31.9136 32.3361 31.9603 32.2993 32.0069C32.2207 32.1101 32.1396 32.2108 32.061 32.3091C32.0143 32.3655 31.9677 32.427 31.9185 32.4834C31.8768 32.535 31.8326 32.5891 31.7859 32.6431L31.7761 32.6529C31.727 32.7094 31.6778 32.7684 31.6262 32.8249C31.5698 32.8887 31.5133 32.955 31.4568 33.0189L33.574 35.1386C37.0889 31.275 39.0195 26.279 39.0195 21.0252Z" fill="white"/>
<path d="M23.027 32.8692L25.2769 35.1191C26.7113 34.3748 28.0205 33.4194 29.1724 32.2748C32.1911 29.2757 33.8515 25.2819 33.8515 21.0278C33.8515 16.7932 32.201 12.8093 29.2068 9.81513C26.2102 6.81855 22.2287 5.16797 17.9918 5.16797C17.8591 5.16797 17.7265 5.17042 17.5938 5.17288C17.5275 5.17288 17.4637 5.17534 17.3973 5.17779H17.39C17.2917 5.18271 17.1959 5.18762 17.0977 5.19253C17.0191 5.19744 16.9429 5.20236 16.8643 5.20727C16.825 5.20972 16.7907 5.21218 16.7587 5.21464L16.7047 5.21955C16.6359 5.22446 16.5622 5.23183 16.491 5.2392C16.4271 5.24657 16.3682 5.25148 16.3068 5.25885C16.2626 5.26376 16.2233 5.26867 16.1864 5.27113L16.125 5.2785C16.1177 5.2785 16.1103 5.28095 16.1054 5.28095C16.0538 5.28587 16.0022 5.29324 15.9506 5.3006C15.7541 5.32517 15.5626 5.35464 15.3734 5.38412C15.3194 5.39394 15.2678 5.40131 15.2162 5.41113L15.199 5.41359C15.1573 5.42096 15.118 5.42833 15.0787 5.4357L15.0517 5.44061C15.0001 5.45043 14.9485 5.46026 14.8945 5.47008C14.7471 5.4971 14.6071 5.52658 14.4695 5.55851C14.3762 5.57816 14.2829 5.60272 14.1895 5.62482L14.1772 5.62728C14.1527 5.63219 14.1306 5.63711 14.106 5.64447C14.0372 5.66167 13.9758 5.67886 13.912 5.6936C13.8579 5.70834 13.8088 5.72062 13.7572 5.73535C13.713 5.74764 13.6737 5.75746 13.6344 5.76974C13.5976 5.77957 13.5681 5.78939 13.5411 5.79676L13.519 5.80413C13.4797 5.81395 13.4404 5.82623 13.4011 5.83852C13.3348 5.85817 13.2783 5.87536 13.2218 5.89501C13.1751 5.90975 13.1358 5.92203 13.0916 5.93431C12.959 5.97852 12.8263 6.02273 12.6962 6.0694C12.6593 6.08168 12.6274 6.09396 12.593 6.10624L12.5635 6.11607C12.5193 6.13326 12.48 6.14554 12.4407 6.16274C12.3719 6.1873 12.313 6.2094 12.254 6.23397C12.2049 6.25362 12.1632 6.27081 12.1189 6.288C12.0379 6.31993 11.9642 6.34941 11.8905 6.38134L11.6695 6.47468C11.6007 6.50415 11.5344 6.53363 11.468 6.5631C11.4312 6.58029 11.3968 6.59503 11.3624 6.60977L11.3305 6.62451C11.2765 6.64907 11.2224 6.67609 11.1684 6.70065C10.8343 6.8603 10.5052 7.02978 10.1884 7.21154C10.1515 7.23119 10.122 7.24838 10.0877 7.26803C10.0189 7.30733 9.94765 7.34909 9.88133 7.38839L9.6529 7.52839C9.60623 7.55787 9.55711 7.5898 9.50798 7.61927C9.34587 7.72243 9.18131 7.83051 9.00446 7.95332C8.95779 7.98525 8.91358 8.01718 8.86937 8.04665L8.83989 8.0663C8.79814 8.09578 8.76129 8.1228 8.72445 8.14982L8.70971 8.15964C8.68515 8.17929 8.66059 8.19648 8.63357 8.21613L8.62375 8.2235C8.57708 8.25543 8.53287 8.28982 8.48866 8.32421C8.43707 8.36105 8.39041 8.40035 8.34128 8.43719C8.30689 8.46421 8.27742 8.48632 8.2504 8.50842L8.21602 8.53544C8.16689 8.57474 8.11531 8.61404 8.06619 8.6558C8.00969 8.70001 7.95566 8.74668 7.90162 8.79089C7.80583 8.86949 7.71249 8.94809 7.6167 9.0316C7.58722 9.05616 7.56021 9.08072 7.53073 9.10774L9.6529 11.2299C11.974 9.2502 14.919 8.16455 17.9893 8.16455C25.0828 8.16455 30.8549 13.9367 30.8549 21.0302C30.8549 24.4886 29.5016 27.7332 27.0478 30.1673C25.8983 31.3046 24.5179 32.233 23.027 32.8692Z" fill="#C8A35F"/>
</g>
<g clip-path="url(#clip1_0_1)">
<path d="M57.9196 30.2354L57.3059 32.0896H58.5464L57.9327 30.2354H57.9196Z" fill="white"/>
<path d="M58.8076 19.7498C58.5986 20.6835 58.2004 21.3951 57.6258 21.8848C57.0382 22.3549 56.3266 22.5965 55.4778 22.5965C54.7857 22.5965 54.1459 22.4202 53.5387 22.0741C52.9511 21.7281 52.5137 21.1927 52.2394 20.4811C51.9391 19.7694 51.802 18.9206 51.802 17.9674C51.802 17.2231 51.926 16.4919 52.1676 15.7998C52.4092 15.1012 52.827 14.5462 53.4016 14.1349C53.9892 13.7366 54.7335 13.5277 55.6019 13.5277C56.3657 13.5277 56.986 13.704 57.4887 14.0827C57.9915 14.4483 58.3701 15.0359 58.6313 15.852L58.6639 15.9369L60.4006 15.5386L60.368 15.4342C60.0415 14.3569 59.467 13.5081 58.6509 12.9009C57.8348 12.3133 56.8293 12.0195 55.6345 12.0195C54.5964 12.0195 53.6236 12.248 52.7356 12.7116C51.8738 13.1947 51.1817 13.8868 50.7117 14.7943C50.2416 15.6953 50 16.7661 50 17.9674C50 19.0773 50.2089 20.135 50.6268 21.0883C51.0446 22.0611 51.6649 22.825 52.481 23.3277C53.2775 23.85 54.3352 24.1112 55.6214 24.1112C56.8554 24.1112 57.9131 23.7651 58.7749 23.1057C59.6433 22.4463 60.2309 21.4604 60.5639 20.1938L60.5965 20.0893L58.8467 19.6584L58.8076 19.7498Z" fill="white"/>
<path d="M74.6925 12.7835C73.8046 12.2612 72.7991 12 71.7088 12C70.0243 12 68.6402 12.555 67.5825 13.6453C66.5248 14.7356 65.9894 16.283 65.9894 18.2025C65.9894 19.2276 66.218 20.1939 66.6815 21.1144C67.132 22.035 67.811 22.7597 68.6924 23.3016C69.5738 23.837 70.5858 24.0982 71.6892 24.0982C72.7273 24.0982 73.7001 23.8566 74.5816 23.3669C75.4826 22.8968 76.1746 22.1721 76.6774 21.232C77.1605 20.3114 77.4086 19.2406 77.4086 18.0589C77.4086 16.8967 77.167 15.8586 76.7165 14.938C76.253 14.0305 75.574 13.2993 74.6925 12.7835ZM74.5032 21.4148C73.772 22.1917 72.8187 22.5965 71.6958 22.5965C70.5858 22.5965 69.6522 22.1982 68.9014 21.4344C68.1701 20.6509 67.7914 19.5801 67.7914 18.2286C67.7914 16.5442 68.1897 15.3167 68.9536 14.6051C69.7175 13.8934 70.6511 13.5278 71.7088 13.5278C72.4727 13.5278 73.1452 13.7171 73.7524 14.0827C74.34 14.4484 74.8101 14.9837 75.1235 15.6627C75.4368 16.3418 75.5935 17.1514 75.5935 18.0719C75.5935 19.5083 75.2279 20.6378 74.5032 21.4148Z" fill="white"/>
<path d="M92.5688 12.5027L89.7744 20.4615C89.5459 21.1013 89.3762 21.604 89.2521 22.0023L88.782 20.6182L85.9942 12.3982H85.8048V16.6485L88.3903 24.1046H89.9311L92.5688 16.6616V12.5027Z" fill="white"/>
<path d="M85.1781 12.3982H83.4805V24.1046H85.1781V12.3982Z" fill="white"/>
<path d="M94.8736 12.3982H93.1891V24.1046H94.8736V12.3982Z" fill="white"/>
<path d="M102.695 12.3982H100.945V24.1046H102.695V12.3982Z" fill="white"/>
<path d="M109.733 14.2198C109.472 13.7366 109.159 13.3384 108.748 13.0772C108.349 12.7965 107.847 12.6071 107.272 12.5222C106.854 12.4374 106.247 12.3982 105.47 12.3982H103.322V13.9586H105.594C106.286 13.9586 106.756 13.9913 107.017 14.0631C107.396 14.1675 107.71 14.3765 107.938 14.7029C108.18 15.0294 108.284 15.4146 108.284 15.8847C108.284 16.5114 108.095 16.9946 107.696 17.3406C107.298 17.6867 106.606 17.8629 105.633 17.8629H103.329V19.4429H105.62C107.285 19.4429 108.48 19.0773 109.12 18.3853C109.779 17.6932 110.106 16.8444 110.106 15.839C110.099 15.2448 109.975 14.7029 109.733 14.2198Z" fill="white"/>
<path d="M120.741 12.3983L116.165 24.1047H118.019L118.541 22.7337H118.521L119.84 19.1819L120.121 18.4507L121.094 15.8652H121.113C121.322 15.2906 121.492 14.703 121.636 14.1285C121.812 14.6834 122.054 15.3625 122.347 16.1198L123.529 19.1688H120.532L119.997 20.6052H124.091L125.462 24.0917H127.453L122.563 12.3853H120.741V12.3983Z" fill="white"/>
<path d="M134.968 12.3982H133.336V24.1046H134.968V12.3982Z" fill="white"/>
<path d="M141.066 21.1927L141.033 21.1405V24.1046H142.764V12.3982H141.066V21.1927Z" fill="white"/>
<path d="M135.588 16.1458L140.407 23.2167V20.2199L135.588 13.1621V16.1458Z" fill="white"/>
<path d="M157.917 12.3982L155.613 15.8324C155.162 16.5114 154.764 17.1513 154.418 17.7062V17.6867L153.445 19.1622V24.1046H155.214V19.1622L159.98 12.3982H157.917Z" fill="white"/>
<path d="M154.052 17.0795L153.327 15.9173L150.984 12.3982H148.835L153.066 18.6072L154.052 17.0795Z" fill="white"/>
<path d="M50 29.9415H51.1622V33.6108H51.8085V29.9415H52.9707V29.3669H50V29.9415Z" fill="white"/>
<path d="M57.6585 29.3669L56.1176 33.6108H56.7967L57.1231 32.6641H58.7358L59.0622 33.6108H59.7412L58.2004 29.3669H57.6585ZM57.3059 32.0895L57.9196 30.2353H57.9327L58.5464 32.0895H57.3059Z" fill="white"/>
<path d="M65.0362 31.8806H65.898V32.1026C65.8915 32.3703 65.8131 32.5858 65.6499 32.749C65.4867 32.9188 65.2778 33.0036 65.0297 33.0036C64.8795 33.0036 64.7489 32.971 64.6379 32.9057C64.5269 32.8535 64.4355 32.7816 64.3702 32.6902C64.2854 32.5988 64.2331 32.4813 64.207 32.3311C64.1744 32.181 64.1613 31.9002 64.1613 31.4824C64.1613 31.0645 64.1744 30.7838 64.207 30.6271C64.2331 30.4834 64.2919 30.3659 64.3702 30.2745C64.4355 30.1896 64.5269 30.1113 64.6379 30.0591C64.7489 30.0003 64.8795 29.9742 65.0297 29.9677C65.2321 29.9742 65.4084 30.0329 65.552 30.1439C65.6891 30.2615 65.787 30.4116 65.8393 30.5814H66.5183C66.453 30.2288 66.2898 29.9285 66.0286 29.6869C65.7674 29.4453 65.4345 29.3278 65.0297 29.3213C64.6967 29.3278 64.4159 29.4062 64.194 29.5629C63.9655 29.713 63.8022 29.8893 63.6978 30.0852C63.6325 30.1896 63.5868 30.3202 63.5541 30.49C63.528 30.6597 63.5084 30.9862 63.5084 31.4824C63.5084 31.9655 63.5215 32.2985 63.5541 32.4683C63.5672 32.5597 63.5868 32.638 63.6129 32.6968C63.639 32.7555 63.6651 32.8143 63.6978 32.8796C63.8022 33.0754 63.9655 33.2452 64.194 33.3954C64.4159 33.5521 64.6967 33.6304 65.0297 33.6369C65.4606 33.6304 65.8197 33.4802 66.107 33.1995C66.3877 32.9122 66.5379 32.5597 66.5444 32.1287V31.2669H65.0362V31.8806Z" fill="white"/>
<path d="M71.5129 29.3669H70.8731V33.6108H73.5826V33.0036H71.5129V29.3669Z" fill="white"/>
<path d="M78.4075 29.3669H77.7677V33.6108H78.4075V29.3669Z" fill="white"/>
<path d="M85.4131 32.3833H85.4066L83.4805 29.3669H82.8799V33.6108H83.5197V30.5944H83.5328L85.4523 33.6108H86.0595V29.3669H85.4131V32.3833Z" fill="white"/>
<path d="M90.5318 33.6108H93.2413V33.0036H91.1782V31.7565H92.941V31.1885H91.1782V29.9741H93.2413V29.3669H90.5318V33.6108Z" fill="white"/>
<path d="M103.805 31.8806H104.667V32.1026C104.66 32.3703 104.582 32.5858 104.419 32.749C104.256 32.9188 104.047 33.0036 103.799 33.0036C103.648 33.0036 103.518 32.971 103.407 32.9057C103.296 32.8535 103.205 32.7816 103.139 32.6902C103.054 32.5988 103.002 32.4813 102.976 32.3311C102.943 32.181 102.93 31.9002 102.93 31.4824C102.93 31.0645 102.943 30.7838 102.976 30.6271C103.002 30.4834 103.061 30.3659 103.139 30.2745C103.205 30.1896 103.296 30.1113 103.407 30.0591C103.518 30.0003 103.648 29.9742 103.799 29.9677C104.008 29.9742 104.177 30.0329 104.321 30.1439C104.458 30.2615 104.556 30.4116 104.608 30.5814H105.287C105.222 30.2288 105.059 29.9285 104.798 29.6869C104.543 29.4453 104.203 29.3278 103.799 29.3213C103.466 29.3278 103.185 29.4062 102.963 29.5629C102.734 29.713 102.571 29.8893 102.467 30.0852C102.401 30.1896 102.356 30.3202 102.323 30.49C102.297 30.6597 102.277 30.9862 102.277 31.4824C102.277 31.9655 102.29 32.2985 102.323 32.4683C102.336 32.5597 102.356 32.638 102.382 32.6968C102.408 32.7555 102.434 32.8143 102.467 32.8796C102.571 33.0754 102.734 33.2452 102.963 33.3954C103.185 33.5521 103.466 33.6304 103.799 33.6369C104.23 33.6304 104.589 33.4802 104.876 33.1995C105.157 32.9122 105.307 32.5597 105.313 32.1287V31.2669H103.805V31.8806Z" fill="white"/>
<path d="M112.339 30.0918C112.241 29.8959 112.077 29.7196 111.855 29.5695C111.627 29.4128 111.346 29.3344 111.013 29.3279C110.68 29.3344 110.399 29.4128 110.177 29.5695C109.949 29.7196 109.786 29.8959 109.681 30.0918C109.616 30.1962 109.57 30.3268 109.538 30.4966C109.512 30.6663 109.492 30.9928 109.492 31.489C109.492 31.9721 109.505 32.3051 109.538 32.4748C109.551 32.5662 109.57 32.6446 109.596 32.7034C109.623 32.7621 109.649 32.8209 109.681 32.8862C109.786 33.082 109.949 33.2518 110.177 33.402C110.399 33.5586 110.68 33.637 111.013 33.6435C111.353 33.637 111.633 33.5521 111.855 33.402C112.077 33.2518 112.241 33.082 112.339 32.8862C112.41 32.7817 112.463 32.6446 112.489 32.4748C112.515 32.3051 112.528 31.9786 112.528 31.489C112.528 30.9993 112.515 30.6663 112.489 30.4966C112.463 30.3333 112.41 30.1962 112.339 30.0918ZM111.836 32.3377C111.803 32.4879 111.744 32.6054 111.666 32.6968C111.601 32.7817 111.516 32.8535 111.411 32.9123C111.3 32.9776 111.163 33.0102 111.013 33.0102C110.863 33.0102 110.732 32.9776 110.621 32.9123C110.51 32.8601 110.419 32.7882 110.354 32.6968C110.269 32.6054 110.217 32.4879 110.191 32.3377C110.158 32.1876 110.145 31.9068 110.145 31.489C110.145 31.0711 110.158 30.7904 110.191 30.6337C110.217 30.49 110.275 30.3725 110.354 30.2811C110.419 30.1962 110.51 30.1179 110.621 30.0657C110.732 30.0069 110.863 29.9808 111.013 29.9742C111.163 29.9808 111.3 30.0069 111.411 30.0657C111.516 30.1244 111.601 30.1962 111.666 30.2811C111.751 30.3725 111.81 30.49 111.836 30.6337C111.862 30.7838 111.882 31.0711 111.882 31.489C111.882 31.9068 111.868 32.1876 111.836 32.3377Z" fill="white"/>
<path d="M116.85 33.6108H119.56V33.0036H117.496V31.7565H119.259V31.1885H117.496V29.9741H119.56V29.3669H116.85V33.6108Z" fill="white"/>
<path d="M125.325 31.1887C125.122 31.1626 124.966 31.143 124.848 31.1234C124.639 31.0842 124.489 31.0124 124.391 30.9145C124.293 30.8165 124.247 30.7056 124.247 30.5815C124.254 30.3791 124.319 30.2224 124.463 30.1245C124.593 30.0265 124.763 29.9743 124.959 29.9743C125.344 29.9808 125.69 30.0918 126.01 30.3008L126.369 29.7719C125.978 29.4912 125.521 29.341 124.992 29.3345C124.554 29.341 124.215 29.452 123.973 29.6805C123.725 29.909 123.601 30.2094 123.601 30.575C123.601 30.8818 123.699 31.143 123.895 31.3585C124.084 31.5674 124.365 31.7045 124.731 31.7632C124.933 31.7894 125.122 31.8155 125.292 31.8416C125.664 31.9069 125.847 32.0962 125.847 32.4096C125.84 32.7948 125.56 32.9907 125.011 32.9972C124.548 32.9907 124.143 32.8536 123.803 32.5728L123.379 33.056C123.83 33.4412 124.371 33.6371 124.998 33.6371C125.971 33.624 126.467 33.2127 126.487 32.4031C126.487 32.1028 126.395 31.8416 126.206 31.6131C126.017 31.3911 125.723 31.2475 125.325 31.1887Z" fill="white"/>
<path d="M138.069 31.1885H136.391V29.3669H135.745V33.6108H136.391V31.7565H138.069V33.6108H138.716V29.3669H138.069V31.1885Z" fill="white"/>
<path d="M143.188 33.6108H145.897V33.0036H143.828V31.7565H145.591V31.1885H143.828V29.9741H145.897V29.3669H143.188V33.6108Z" fill="white"/>
<path d="M153.021 30.5489C153.007 30.1571 152.87 29.8568 152.596 29.6413C152.374 29.452 152.087 29.3606 151.734 29.3606H150.076V33.6044H150.722V31.7894H151.545L152.42 33.6044H153.184L152.198 31.7241C152.74 31.5217 153.014 31.1299 153.021 30.5489ZM150.722 31.2279V29.9417H151.728C151.93 29.9417 152.093 29.9874 152.198 30.0723C152.335 30.1702 152.407 30.3334 152.413 30.5554C152.413 30.7382 152.355 30.8949 152.237 31.019C152.12 31.1561 151.937 31.2279 151.695 31.2279H150.722Z" fill="white"/>
<path d="M157.29 33.6108H160V33.0036H157.93V31.7565H159.693V31.1885H157.93V29.9741H160V29.3669H157.29V33.6108Z" fill="white"/>
</g>
<defs>
<clipPath id="clip0_0_1">
<rect width="39.0194" height="46" fill="white"/>
</clipPath>
<clipPath id="clip1_0_1">
<rect width="110" height="21.6435" fill="white" transform="translate(50 12)"/>
</clipPath>
</defs>
</svg>
